<svg width="40" height="40" viewBox="0 0 40 40" fill="none" xmlns="http://www.w3.org/2000/svg">
<path d="M16.6666 16.6667H3.33331M23.9666 22.3L31.0333 29.3667M27.113 4.5537C28.7402 6.18089 28.7402 8.81907 27.113 10.4463C25.4858 12.0734 22.8476 12.0734 21.2204 10.4463C19.5932 8.81907 19.5932 6.18089 21.2204 4.5537C22.8476 2.92652 25.4858 2.92652 27.113 4.5537ZM14.714 11.9526C17.3175 14.5561 17.3175 18.7772 14.714 21.3807C12.1105 23.9842 7.88943 23.9842 5.28595 21.3807C2.68245 18.7772 2.68245 14.5561 5.28595 11.9526C7.88945 9.3491 12.1105 9.3491 14.714 11.9526ZM35.1916 25.2583L26.925 33.525C24.9583 35.4917 21.7716 35.4917 19.805 33.525C17.8383 31.5583 17.8383 28.3717 19.805 26.405L28.0716 18.1383C30.0383 16.1717 33.225 16.1717 35.1916 18.1383C37.1583 20.105 37.1583 23.2933 35.1916 25.2583Z" stroke="#323232" stroke-width="2" stroke-linecap="round" stroke-linejoin="round"/>
</svg>
