<svg width="40" height="40" viewBox="0 0 40 40" fill="none" xmlns="http://www.w3.org/2000/svg">
<path d="M28.3368 20.833C25.6692 21.9452 22.6678 21.9455 20 20.8337C17.3322 19.7219 14.3308 19.7221 11.6632 20.8344M16.6147 8.3183C16.5058 9.42547 16.0297 10.4644 15.2621 11.2697L13.5341 13.0598C12.334 14.3031 11.6632 15.9636 11.6632 17.6917V31.6715C11.6632 33.5132 13.1562 35.0062 14.9979 35.0062H25.0021C25.8865 35.0062 26.7347 34.6549 27.3601 34.0295C27.9855 33.4041 28.3368 32.5559 28.3368 31.6715V17.6917C28.3368 15.9637 27.6661 14.3031 26.4659 13.0598L24.7379 11.2697C23.9703 10.4644 23.4942 9.42549 23.3853 8.3183M17.499 3.32639H22.5011C23.8823 3.32639 25.0021 4.44614 25.0021 5.82743V6.66111C25.0021 7.58197 24.2556 8.32847 23.3347 8.32847H16.6653C15.7444 8.32847 14.9979 7.58197 14.9979 6.66111V5.82743C14.9979 4.44614 16.1177 3.32639 17.499 3.32639Z" stroke="#323232" stroke-width="2" stroke-linecap="round" stroke-linejoin="round"/>
</svg>
