<svg width="24" height="24" viewBox="0 0 24 24" fill="none" xmlns="http://www.w3.org/2000/svg">
<path d="M6.96491 5.14256H4.53668C2.95894 5.14256 1.67993 6.42157 1.67993 7.99931V13.9271C1.67993 14.7159 2.31944 15.3554 3.10831 15.3554H3.71536C4.50423 15.3554 5.17181 14.6795 5.17181 13.8906V13.3193M17.035 5.14255H19.4632C21.0409 5.14255 22.3199 6.42156 22.3199 7.9993V13.927C22.3199 14.7159 21.6804 15.3554 20.8916 15.3554H20.2845C19.4956 15.3554 18.8262 14.7021 18.8262 13.9133V13.3419M11.9642 17.248V20.8547M10.8929 20.8547H13.1069C16.2624 20.8547 18.8204 18.2967 18.8204 15.1412V9.42768C18.8204 5.87777 15.9426 3 12.3927 3H11.6071C8.05721 3 5.17944 5.87777 5.17944 9.42768V15.1412C5.17944 18.2966 7.73746 20.8547 10.8929 20.8547ZM13.8211 15.3554C13.8211 16.381 12.9897 17.2123 11.9642 17.2123C10.9387 17.2123 10.1073 16.381 10.1073 15.3554C10.1073 14.3299 10.9387 13.4986 11.9642 13.4986C12.9897 13.4986 13.8211 14.3299 13.8211 15.3554Z" stroke="#323232" stroke-width="1.5"/>
<path d="M8.97998 9.935C9.25612 9.935 9.47998 10.1589 9.47998 10.435C9.47998 10.7111 9.25612 10.935 8.97998 10.935C8.70384 10.935 8.47998 10.7111 8.47998 10.435C8.47998 10.1589 8.70384 9.935 8.97998 9.935ZM14.98 9.935C15.2561 9.935 15.48 10.1589 15.48 10.435C15.48 10.7111 15.2561 10.935 14.98 10.935C14.7038 10.935 14.48 10.7111 14.48 10.435C14.48 10.1589 14.7038 9.935 14.98 9.935Z" stroke="#323232"/>
</svg>
