<svg width="24" height="24" viewBox="0 0 24 24" fill="none" xmlns="http://www.w3.org/2000/svg">
<path d="M9.11222 8.49413L5.97 15.9908H3.92L2.37444 10.0086C2.28 9.63968 2.19889 9.50524 1.91333 9.34968C1.44666 9.09635 0.677778 8.85968 0 8.7119L0.045556 8.48968H3.34555C3.56138 8.48924 3.77024 8.56609 3.93431 8.70631C4.09838 8.84653 4.20681 9.04087 4.24 9.25413L5.05667 13.5875L7.07555 8.48413L9.11222 8.49413ZM17.1444 13.543C17.1533 11.5652 14.4089 11.4564 14.4278 10.5719C14.4333 10.303 14.69 10.0163 15.25 9.94413C15.9058 9.88072 16.5666 9.9959 17.1622 10.2775L17.5033 8.68746C16.923 8.46976 16.3087 8.35689 15.6889 8.35413C13.7722 8.35413 12.4222 9.37302 12.4122 10.8319C12.3989 11.9119 13.3744 12.513 14.11 12.8719C14.8644 13.2397 15.1178 13.4752 15.1156 13.8041C15.11 14.3075 14.5133 14.5286 13.9544 14.5375C12.98 14.553 12.4133 14.2741 11.9633 14.0641L11.6122 15.7063C12.0644 15.9152 12.9011 16.0963 13.7689 16.1052C15.8056 16.1052 17.1378 15.0986 17.1444 13.5397V13.543ZM22.2067 15.9841H24L22.4344 8.49413H20.7789C20.6022 8.49337 20.4293 8.54529 20.2823 8.64325C20.1352 8.74122 20.0207 8.88078 19.9533 9.04413L17.0433 15.9908H19.08L19.4844 14.8708H21.9722L22.2067 15.9841ZM20.0422 13.3286L21.0633 10.5252L21.6511 13.3408L20.0422 13.3286ZM11.8833 8.48746L10.28 15.9841H8.34L9.94444 8.48746H11.8833Z" fill="#1434CB"/>
</svg>
