<svg width="86" height="14" viewBox="0 0 86 14" fill="none" xmlns="http://www.w3.org/2000/svg">
<path d="M7 0L8.72809 4.62149L13.6574 4.83688L9.79611 7.90851L11.1145 12.6631L7 9.94L2.8855 12.6631L4.20389 7.90851L0.342604 4.83688L5.27191 4.62149L7 0Z" fill="#FFCA43"/>
<path d="M25 0L26.7281 4.62149L31.6574 4.83688L27.7961 7.90851L29.1145 12.6631L25 9.94L20.8855 12.6631L22.2039 7.90851L18.3426 4.83688L23.2719 4.62149L25 0Z" fill="#FFCA43"/>
<path d="M43 0L44.7281 4.62149L49.6574 4.83688L45.7961 7.90851L47.1145 12.6631L43 9.94L38.8855 12.6631L40.2039 7.90851L36.3426 4.83688L41.2719 4.62149L43 0Z" fill="#FFCA43"/>
<path d="M61 0L62.7281 4.62149L67.6574 4.83688L63.7961 7.90851L65.1145 12.6631L61 9.94L56.8855 12.6631L58.2039 7.90851L54.3426 4.83688L59.2719 4.62149L61 0Z" fill="#FFCA43"/>
<path d="M79 0L80.7281 4.62149L85.6574 4.83688L81.7961 7.90851L83.1145 12.6631L79 9.94L74.8855 12.6631L76.2039 7.90851L72.3426 4.83688L77.2719 4.62149L79 0Z" fill="#FFCA43"/>
</svg>
