<svg width="24" height="24" viewBox="0 0 24 24" fill="none" xmlns="http://www.w3.org/2000/svg">
<path d="M20.0033 10.5454V21.0038M22.0042 12L12.6253 5.1822C12.2752 4.92869 11.8019 4.92869 11.4518 5.1822L1.99585 12M19.5031 9.7421V4.49691C19.5031 4.22065 19.2792 3.9967 19.0029 3.9967H16.0017C15.7254 3.9967 15.5015 4.22065 15.5015 4.49691V7.107M22.0042 21.0038H1.99585M3.99668 10.5574V21.0038M6.99793 21.0038V15.5015C6.99793 15.2252 7.22188 15.0013 7.49814 15.0013H9.99918C10.2754 15.0013 10.4994 15.2252 10.4994 15.5015V21.0038M14.0006 18.0025H17.0023C17.2784 18.0025 17.5023 17.7787 17.5023 17.5025V15.5013C17.5023 15.2251 17.2784 15.0013 17.0023 15.0013H14.0006C13.7245 15.0013 13.5006 15.2251 13.5006 15.5013V17.5025C13.5006 17.7787 13.7245 18.0025 14.0006 18.0025Z" stroke="#323232" stroke-width="1.5" stroke-linecap="round" stroke-linejoin="round"/>
</svg>
