<svg width="24" height="24" viewBox="0 0 24 24" fill="none" xmlns="http://www.w3.org/2000/svg">
<path d="M19.4961 18.0025V21.0037M19.5031 10.9995C20.8839 10.9995 22.0042 12.1188 22.0042 13.4995V15.5025C22.0042 16.8832 20.8839 18.0025 19.5031 18.0025C18.1224 18.0025 17.0021 16.8832 17.0021 15.5025V13.4995C17.0021 12.1188 18.1224 10.9995 19.5031 10.9995ZM19.5031 10.9995L19.5031 3.99663C19.5031 3.44412 19.0552 2.99622 18.5027 2.99622H8.99877C8.44625 2.99622 7.99835 3.44412 7.99835 3.99663V6.99788M8.49856 19.0029V21.0037M5.49731 16.0016H11.4998M5.49731 13.0004H11.4998M5.49731 9.99913H11.4998M2.99627 21.0037V7.9983C2.99627 7.44578 3.44417 6.99788 3.99668 6.99788H13.0004C13.5529 6.99788 14.0008 7.44578 14.0008 7.9983V21.0037M1.99585 21.0037H22.0042" stroke="#323232" stroke-width="1.5" stroke-linecap="round" stroke-linejoin="round"/>
</svg>
