<svg width="34" height="34" viewBox="0 0 34 34" fill="none" xmlns="http://www.w3.org/2000/svg">
<path d="M31.6064 17.1425C31.6064 16.0945 31.522 15.0464 31.3534 14.0198H17.0389V19.9443H25.2397C24.9024 21.8479 23.8061 23.5589 22.2039 24.6283V28.4782H27.0949C29.962 25.8047 31.6064 21.8479 31.6064 17.1425Z" fill="#4285F4"/>
<path d="M17.0396 32.1999C21.1294 32.1999 24.5862 30.8309 27.0949 28.4782L22.2039 24.6283C20.8336 25.5694 19.0845 26.1043 17.0396 26.1043C13.0762 26.1043 9.72422 23.388 8.52256 19.752H3.48404V23.7302C6.05601 28.9275 11.3053 32.1999 17.0396 32.1999Z" fill="#34A853"/>
<path d="M8.52256 19.752C7.89001 17.8484 7.8906 15.7737 8.52315 13.8487V9.89193H3.48383C1.31207 14.2337 1.31207 19.3669 3.48383 23.7087L8.52256 19.752Z" fill="#FBBC04"/>
<path d="M17.0396 7.49647C19.211 7.45369 21.2981 8.28783 22.8581 9.80639L27.2009 5.40042C24.4392 2.79106 20.8132 1.35806 17.0396 1.40083C11.3053 1.40083 6.05579 4.6946 3.48383 9.89193L8.52256 13.8701C9.72422 10.2128 13.0762 7.49647 17.0396 7.49647Z" fill="#EA4335"/>
</svg>
