<svg width="34" height="34" viewBox="0 0 34 34" fill="none" xmlns="http://www.w3.org/2000/svg">
<path d="M16.7215 8.88032C18.4804 9.0194 20.2393 8.04583 21.3386 6.81148C22.4196 5.54236 23.1341 3.83862 22.9509 2.1001C21.3936 2.16964 19.4698 3.07367 18.3705 4.34279C17.3628 5.43805 16.5017 7.21134 16.7215 8.88032Z" fill="#323232"/>
<path d="M18.8269 10.0782C19.969 9.65272 21.3829 9.12591 22.9324 9.21053C23.9218 9.28007 26.78 9.55823 28.6122 12.1312C28.6038 12.1372 28.5852 12.1487 28.5576 12.1657C28.1043 12.4454 25.2248 14.2223 25.2593 17.7293C25.2937 21.9074 28.8805 23.4656 29.3498 23.6694C29.3804 23.6827 29.3978 23.6902 29.4 23.6924C29.398 23.698 29.3944 23.7092 29.389 23.7256C29.2954 24.0131 28.6785 25.9069 27.2747 27.8474C25.9738 29.6555 24.6364 31.4288 22.511 31.4635C21.5109 31.4805 20.8371 31.2042 20.1356 30.9165C19.3977 30.6139 18.6291 30.2987 17.4176 30.2987C16.1625 30.2987 15.3588 30.6224 14.585 30.9339C13.9129 31.2045 13.2635 31.466 12.3608 31.4983C10.3087 31.5679 8.75139 29.5859 7.45054 27.7779C4.79388 24.127 2.76017 17.4859 5.50843 13.0005C6.84592 10.7578 9.28272 9.34961 11.9027 9.31484C13.0458 9.29512 14.1358 9.706 15.0892 10.0654C15.8168 10.3397 16.4648 10.584 16.9962 10.584C17.4697 10.584 18.092 10.3521 18.8269 10.0782Z" fill="#323232"/>
</svg>
