<svg width="24" height="24" viewBox="0 0 24 24" fill="none" xmlns="http://www.w3.org/2000/svg">
<path d="M6.74751 8.99878C6.74751 8.58457 6.41173 8.24878 5.99751 8.24878C5.5833 8.24878 5.24751 8.58457 5.24751 8.99878H6.74751ZM18.7525 8.99878C18.7525 8.58457 18.4167 8.24878 18.0025 8.24878C17.5883 8.24878 17.2525 8.58457 17.2525 8.99878H18.7525ZM14.7508 9.9992C14.7508 9.58498 14.4151 9.2492 14.0008 9.2492C13.5866 9.2492 13.2508 9.58498 13.2508 9.9992H14.7508ZM13.2508 17.0021C13.2508 17.4163 13.5866 17.7521 14.0008 17.7521C14.4151 17.7521 14.7508 17.4163 14.7508 17.0021H13.2508ZM10.7492 9.9992C10.7492 9.58498 10.4134 9.2492 9.99918 9.2492C9.58497 9.2492 9.24918 9.58498 9.24918 9.9992H10.7492ZM9.24918 17.0021C9.24918 17.4163 9.58497 17.7521 9.99918 17.7521C10.4134 17.7521 10.7492 17.4163 10.7492 17.0021H9.24918ZM4.49689 5.24753C4.08267 5.24753 3.74689 5.58332 3.74689 5.99753C3.74689 6.41174 4.08267 6.74753 4.49689 6.74753V5.24753ZM19.5031 6.74753C19.9174 6.74753 20.2531 6.41174 20.2531 5.99753C20.2531 5.58332 19.9174 5.24753 19.5031 5.24753V6.74753ZM7.28683 5.76036C7.15585 6.15331 7.36822 6.57805 7.76117 6.70904C8.15413 6.84003 8.57887 6.62766 8.70986 6.2347L7.28683 5.76036ZM8.54257 4.36485L9.25408 4.60202L9.25414 4.60185L8.54257 4.36485ZM10.4414 2.99628L10.4412 3.74628H10.4414V2.99628ZM13.5587 2.99628V3.74628L13.5596 3.74628L13.5587 2.99628ZM15.4595 4.36485L16.1712 4.12846L16.171 4.12785L15.4595 4.36485ZM15.2899 6.23391C15.4205 6.62702 15.845 6.83985 16.2381 6.7093C16.6312 6.57875 16.844 6.15424 16.7135 5.76114L15.2899 6.23391ZM5.24751 8.99878V19.0029H6.74751V8.99878H5.24751ZM5.24751 19.0029C5.24751 20.5222 6.4791 21.7538 7.99835 21.7538V20.2538C7.30753 20.2538 6.74751 19.6938 6.74751 19.0029H5.24751ZM7.99835 21.7538H16.0017V20.2538H7.99835V21.7538ZM16.0017 21.7538C17.5209 21.7538 18.7525 20.5222 18.7525 19.0029H17.2525C17.2525 19.6938 16.6925 20.2538 16.0017 20.2538V21.7538ZM18.7525 19.0029V8.99878H17.2525V19.0029H18.7525ZM13.2508 9.9992V17.0021H14.7508V9.9992H13.2508ZM9.24918 9.9992V17.0021H10.7492V9.9992H9.24918ZM4.49689 6.74753H19.5031V5.24753H4.49689V6.74753ZM8.70986 6.2347L9.25408 4.60202L7.83106 4.12768L7.28683 5.76036L8.70986 6.2347ZM9.25414 4.60185C9.42435 4.09083 9.90256 3.74615 10.4412 3.74628L10.4415 2.24628C9.25701 2.246 8.20531 3.00402 7.831 4.12785L9.25414 4.60185ZM10.4414 3.74628H13.5587V2.24628H10.4414V3.74628ZM13.5596 3.74628C14.0987 3.74561 14.5775 4.09039 14.7479 4.60185L16.171 4.12785C15.7964 3.00306 14.7433 2.24481 13.5577 2.24628L13.5596 3.74628ZM14.7477 4.60124L15.2899 6.23391L16.7135 5.76114L16.1712 4.12846L14.7477 4.60124Z" fill="#323232"/>
</svg>
