<svg width="24" height="24" viewBox="0 0 24 24" fill="none" xmlns="http://www.w3.org/2000/svg">
<path d="M6 3H4C2.895 3 2 3.895 2 5V9C2 12.314 4.686 15 8 15M8 15C11.314 15 14 12.314 14 9V5C14 3.895 13.105 3 12 3H10M8 15V16.25C8 19.426 10.574 22 13.75 22C16.926 22 19.5 19.426 19.5 16.25V16M6 2V4M10 2V4M21.2678 11.7322C22.2441 12.7085 22.2441 14.2914 21.2678 15.2677C20.2915 16.244 18.7086 16.244 17.7323 15.2677C16.756 14.2914 16.756 12.7085 17.7323 11.7322C18.7086 10.7559 20.2915 10.7559 21.2678 11.7322Z" stroke="#323232" stroke-width="1.5" stroke-linecap="round" stroke-linejoin="round"/>
</svg>
