<svg width="24" height="24" viewBox="0 0 24 24" fill="none" xmlns="http://www.w3.org/2000/svg">
<path d="M1.99951 14.3102H17.556M5.55542 9.77765L6.89995 4.75512C7.05249 4.18591 7.42528 3.70079 7.93604 3.40685C8.4468 3.1129 9.05353 3.03429 9.62233 3.18836L20.3563 6.06631C20.9255 6.21886 21.4106 6.59165 21.7046 7.1024C21.9985 7.61316 22.0771 8.21989 21.9231 8.7887L20.2008 15.2224C19.8943 16.3803 18.7224 17.0844 17.5561 16.8114M17.556 18.6671V12C17.5562 11.4106 17.3221 10.8452 16.9053 10.4284C16.4885 10.0116 15.9231 9.77749 15.3337 9.77765H4.22187C3.63241 9.77749 3.06705 10.0116 2.65025 10.4284C2.23344 10.8452 1.99935 11.4106 1.99951 12V18.6671C1.99935 19.2565 2.23344 19.8219 2.65025 20.2387C3.06705 20.6555 3.63241 20.8896 4.22187 20.8894H15.3337C16.561 20.8894 17.556 19.8944 17.556 18.6671Z" stroke="#323232" stroke-width="1.5" stroke-linecap="round" stroke-linejoin="round"/>
</svg>
