<svg width="26" height="30" viewBox="0 0 26 30" fill="none" xmlns="http://www.w3.org/2000/svg">
<path d="M12.5215 6.78022C14.2804 6.9193 16.0393 5.94573 17.1386 4.71138C18.2196 3.44227 18.9341 1.73852 18.7509 0C17.1936 0.0695407 15.2698 0.97357 14.1705 2.24269C13.1628 3.33796 12.3017 5.11124 12.5215 6.78022Z" fill="#323232"/>
<path d="M14.6269 7.97814C15.769 7.55262 17.1829 7.02581 18.7324 7.11043C19.7218 7.17997 22.58 7.45814 24.4122 10.0311C24.4038 10.0371 24.3852 10.0486 24.3576 10.0656C23.9043 10.3453 21.0247 12.1222 21.0593 15.6292C21.0937 19.8073 24.6805 21.3655 25.1498 21.5693C25.1804 21.5826 25.1978 21.5901 25.2 21.5923C25.198 21.5979 25.1944 21.6091 25.189 21.6255C25.0954 21.913 24.4785 23.8068 23.0747 25.7473C21.7738 27.5554 20.4363 29.3287 18.311 29.3634C17.3109 29.3804 16.6371 29.1041 15.9356 28.8164C15.1977 28.5138 14.4291 28.1986 13.2176 28.1986C11.9625 28.1986 11.1587 28.5223 10.385 28.8338C9.71293 29.1044 9.06353 29.3659 8.16076 29.3982C6.10872 29.4678 4.55137 27.4858 3.25053 25.6778C0.593872 22.0269 -1.43984 15.3858 1.30842 10.9004C2.64591 8.65771 5.0827 7.24951 7.70272 7.21474C8.84576 7.19502 9.93577 7.60591 10.8892 7.9653C11.6168 8.23958 12.2648 8.48386 12.7962 8.48386C13.2696 8.48386 13.892 8.25197 14.6269 7.97814Z" fill="#323232"/>
</svg>
