<svg width="22" height="22" viewBox="0 0 22 22" fill="none" xmlns="http://www.w3.org/2000/svg">
<path d="M14.75 0.75V3.75M10.75 0.75V3.75M6.75 0.75V3.75M10.75 14.75H15.75M10.75 9.75H15.75M18.75 1.75H2.75C1.645 1.75 0.75 2.645 0.75 3.75V18.75C0.75 19.855 1.645 20.75 2.75 20.75H18.75C19.855 20.75 20.75 19.855 20.75 18.75V3.75C20.75 2.645 19.855 1.75 18.75 1.75ZM7.38388 13.8661C7.87204 14.3543 7.87204 15.1457 7.38388 15.6339C6.89573 16.122 6.10427 16.122 5.61611 15.6339C5.12795 15.1457 5.12795 14.3543 5.61611 13.8661C6.10426 13.3779 6.89572 13.3779 7.38388 13.8661ZM7.38388 8.8661C7.87204 9.35426 7.87204 10.1457 7.38388 10.6339C6.89573 11.122 6.10427 11.122 5.61611 10.6339C5.12795 10.1457 5.12795 9.35426 5.61611 8.8661C6.10426 8.37795 6.89572 8.37795 7.38388 8.8661Z" stroke="#323232" stroke-width="1.5" stroke-linecap="round" stroke-linejoin="round"/>
</svg>
