<svg width="24" height="16" viewBox="0 0 24 16" fill="none" xmlns="http://www.w3.org/2000/svg">
<path d="M19.7714 5.38924C19.7953 5.56541 19.8152 5.72892 19.8399 5.89182C19.906 6.3238 19.9657 6.75699 20.0426 7.18716C20.1732 7.919 20.3141 8.64873 20.4532 9.37906C20.4737 9.48857 20.4806 9.49158 20.6061 9.49973C21.0705 9.52316 21.5202 9.67021 21.9087 9.92568C22.5772 10.3646 22.9923 10.9779 23.1241 11.7692C23.1618 11.9954 23.1603 12.2289 23.1682 12.4594C23.1751 12.66 23.1712 12.8615 23.1682 13.0627C23.1639 13.4624 22.8804 13.7565 22.4804 13.7758C22.4605 13.7758 22.4403 13.7758 22.42 13.7758C22.3039 13.7819 22.2921 13.79 22.2671 13.8998C22.1961 14.2301 22.0582 14.5423 21.862 14.8172C21.2351 15.683 20.3877 16.0814 19.3204 15.9783C18.1991 15.8697 17.264 15.0229 17 13.9626C16.9859 13.9049 16.9668 13.8485 16.9478 13.7834C16.8854 13.7807 16.8311 13.7761 16.7768 13.7761C15.4243 13.7761 14.0719 13.7761 12.7194 13.7761C12.6993 13.7773 12.6792 13.7773 12.6591 13.7761C12.5731 13.7668 12.5333 13.8063 12.5149 13.8902C12.4612 14.1306 12.374 14.3624 12.2557 14.5786C11.9986 15.0536 11.6055 15.441 11.1268 15.6911C10.648 15.9412 10.1055 16.0427 9.56872 15.9825C9.03195 15.9223 8.52539 15.7031 8.11398 15.3531C7.70257 15.0031 7.40505 14.5382 7.25957 14.0181C7.18356 13.7442 7.21372 13.7767 6.92624 13.7767C6.56906 13.7745 6.21209 13.7745 5.85532 13.7767C5.69311 13.7818 5.53384 13.7326 5.40283 13.6368C5.31555 13.5757 5.24434 13.4944 5.19528 13.3999C5.14622 13.3053 5.12076 13.2003 5.12107 13.0938C5.12107 12.536 5.09091 11.9776 5.14883 11.421C5.23661 10.5737 5.55064 9.81889 6.07132 9.14799C6.12351 9.08041 6.18112 9.01676 6.23452 8.95009C6.25503 8.92445 6.27072 8.89489 6.29787 8.85326C6.26084 8.84438 6.22324 8.83803 6.18535 8.83426C6.05985 8.83154 5.93406 8.83576 5.80857 8.83003C5.41429 8.81193 5.13525 8.52837 5.11775 8.13319C5.11594 8.08794 5.11775 8.04269 5.11775 7.99744C5.11775 5.60946 5.11826 3.22148 5.11926 0.8335C5.11801 0.723164 5.13058 0.613105 5.15667 0.505892C5.19408 0.364007 5.27642 0.238048 5.39137 0.146856C5.50632 0.0556648 5.64771 0.0041435 5.79439 0C5.82938 0 5.86468 0 5.89967 0C7.63424 0 9.36882 0 11.1034 0C11.2307 0 11.355 0.00844662 11.4711 0.063953C11.7309 0.188541 11.8633 0.400309 11.8829 0.683874C11.8874 0.744207 11.885 0.80454 11.885 0.864873C11.885 2.27767 11.885 3.69037 11.885 5.10296C11.885 5.31413 11.885 5.31413 12.1028 5.31413C12.6006 5.31413 13.0983 5.31413 13.596 5.31413C13.9303 5.31413 14.2597 5.35606 14.5641 5.50387C15.3137 5.86587 15.7376 6.46136 15.8118 7.29094C15.8326 7.57685 15.8359 7.86377 15.8214 8.15008C15.8085 8.516 15.5514 8.78358 15.1931 8.82702C15.0724 8.8418 15.0661 8.84391 15.0362 8.9685C14.9707 9.2418 14.9077 9.51602 14.844 9.78993C14.8202 9.8925 14.794 9.99506 14.7759 10.0988C14.7646 10.1579 14.7621 10.2182 14.7683 10.278C14.7822 10.3911 14.8096 10.4147 14.9246 10.415C15.4274 10.4162 15.9301 10.4162 16.4329 10.415C16.4583 10.4131 16.4836 10.4098 16.5086 10.405C16.5168 10.3546 16.5291 10.3028 16.5331 10.2503C16.5685 9.7636 16.5679 9.27498 16.5312 8.7884C16.4673 7.86088 16.3989 6.93367 16.3261 6.00675C16.3002 5.671 16.2625 5.33615 16.2287 5.0013C16.2232 4.947 16.2112 4.89361 16.1985 4.82634C16.0618 4.82871 15.9253 4.83878 15.7898 4.8565C15.6549 4.86978 15.5201 4.88667 15.3846 4.89391C15.06 4.9108 14.7756 4.67761 14.6992 4.38771C14.6151 4.06735 14.7433 3.74788 15.0365 3.59343C15.14 3.53883 15.2643 3.5159 15.3819 3.49811C15.5704 3.46975 15.7617 3.45768 15.9517 3.43777C15.9867 3.43445 16.022 3.43204 16.0567 3.42721C16.1928 3.40791 16.1913 3.407 16.2021 3.26884C16.2462 2.71529 16.4899 2.27033 16.9415 1.94634C17.2148 1.74233 17.5459 1.63055 17.8869 1.62718C18.5808 1.62356 19.2746 1.61632 19.9684 1.62718C20.75 1.64076 21.4647 2.21874 21.6749 2.9723C21.9727 4.03929 21.3129 5.08728 20.2447 5.3271C20.0972 5.36149 19.9455 5.36782 19.7714 5.38924ZM21.7482 12.3839C21.8408 11.8162 21.5006 11.1637 20.8484 10.9519C20.6831 10.8985 20.5135 10.8916 20.3422 10.8883C20.1612 10.8856 19.9802 10.8928 19.8007 10.8699C19.5407 10.8361 19.3594 10.682 19.2695 10.4358C19.2276 10.3122 19.1954 10.1855 19.1732 10.0569C19.0103 9.23426 18.8393 8.41313 18.6924 7.58747C18.5738 6.91989 18.4857 6.24688 18.3838 5.57627C18.3744 5.51353 18.3645 5.45078 18.3536 5.37838C18.1246 5.37325 17.9114 5.36933 17.6863 5.38049C17.6863 5.44686 17.6827 5.49603 17.6863 5.5443C17.7165 5.86979 17.7518 6.19469 17.7747 6.52049C17.8317 7.32744 17.8827 8.135 17.9358 8.94225C17.9723 9.50033 17.9524 10.0584 17.9114 10.6147C17.8628 11.2744 17.3412 11.7948 16.7083 11.8063C16.0599 11.8183 15.4115 11.8178 14.7629 11.8047C14.3505 11.7963 14.0054 11.6177 13.7408 11.2995C13.4392 10.936 13.3261 10.5082 13.3788 10.046C13.412 9.75825 13.4923 9.47559 13.549 9.19022C13.571 9.07981 13.6226 8.97302 13.603 8.843C13.5499 8.83938 13.501 8.83335 13.4522 8.83335C12.1499 8.83335 10.8479 8.82038 9.54589 8.83727C8.52023 8.85024 7.69639 9.29158 7.08793 10.1184C6.60225 10.7785 6.46589 11.532 6.52291 12.333C6.52291 12.3417 6.53196 12.3502 6.55066 12.3839H21.7482ZM6.52562 7.4113C6.68249 7.44509 10.348 7.44147 10.4675 7.4113C10.4995 7.29064 10.5007 4.12768 10.4675 3.99796C10.3103 3.96388 9.31934 3.97112 9.20561 4.00943C9.20463 4.0633 9.19979 4.11703 9.19113 4.17022C9.17002 4.26071 9.15343 4.35936 9.1115 4.44171C8.96941 4.72136 8.66714 4.85771 8.34889 4.79677C8.07377 4.74428 7.84601 4.49119 7.81072 4.19767C7.80257 4.12949 7.79593 4.06101 7.78719 3.97805C7.36124 3.97805 6.94705 3.97805 6.52442 3.97805L6.52562 7.4113ZM10.4829 1.41752C10.2937 1.378 6.63211 1.38736 6.51838 1.42808C6.51657 1.80396 6.51507 2.18224 6.51838 2.55812C6.7018 2.58828 7.68552 2.58406 7.80438 2.55269C7.87527 2.2106 8.07588 1.97621 8.43486 1.94936C8.86986 1.91587 9.10968 2.16686 9.20652 2.56506C9.44604 2.59522 10.3697 2.58497 10.4823 2.54816L10.4829 1.41752ZM17.6067 3.9678C17.6688 3.97142 17.7177 3.97685 17.7669 3.97685C18.4301 3.97906 19.0936 3.98017 19.7572 3.98017C19.8025 3.98133 19.8477 3.97962 19.8927 3.97504C20.1624 3.94185 20.3633 3.72828 20.3503 3.48242C20.3457 3.35529 20.2909 3.23518 20.1978 3.14839C20.1048 3.06161 19.9812 3.01521 19.8541 3.01936C19.2263 3.02329 18.5982 3.01936 17.9705 3.02419C17.7433 3.02419 17.607 3.16567 17.6003 3.39162C17.597 3.50685 17.5982 3.62269 17.6003 3.73793C17.5988 3.81063 17.6034 3.88424 17.6067 3.9678ZM14.4178 7.42457C14.4202 7.39214 14.4202 7.35957 14.4178 7.32714C14.3526 6.96695 14.0609 6.71717 13.6871 6.71023C13.3855 6.7045 13.0838 6.70872 12.7822 6.70872C12.5257 6.70872 12.2693 6.70872 12.0129 6.70872C11.9025 6.70872 11.8898 6.7217 11.8877 6.82939C11.8845 6.99028 11.8845 7.15117 11.8877 7.31205C11.8898 7.41975 11.9013 7.42789 12.0126 7.43272C12.0328 7.43272 12.0527 7.43272 12.0729 7.43272C12.7969 7.43272 13.5209 7.43272 14.2449 7.43272C14.2971 7.43423 14.3514 7.4285 14.4178 7.42457ZM8.68283 13.7975C8.76669 14.1641 9.24121 14.6045 9.87501 14.6033C10.4705 14.6033 10.967 14.1936 11.0596 13.8021C10.9486 13.7686 8.84694 13.7626 8.68283 13.7975ZM20.8131 13.7927C20.7757 13.7845 20.7378 13.7791 20.6996 13.7764C19.9813 13.7764 19.263 13.7764 18.5449 13.7764C18.5075 13.7797 18.4704 13.7863 18.4341 13.796C18.5705 14.2712 19.1527 14.6371 19.6996 14.6045C20.2043 14.5746 20.7527 14.1795 20.8131 13.7927Z" fill="#8E8E8E"/>
<path d="M2.4384 11.4313C2.99588 11.4313 3.55456 11.4277 4.11053 11.434C4.23084 11.4342 4.35016 11.4559 4.46287 11.4979C4.72502 11.6017 4.89667 11.9016 4.87103 12.1761C4.85909 12.3248 4.79999 12.4659 4.70233 12.5788C4.60467 12.6916 4.47354 12.7704 4.32803 12.8035C4.284 12.8139 4.23901 12.8197 4.19379 12.8207C3.02363 12.8207 1.85347 12.8244 0.683612 12.8207C0.375009 12.8207 0.135487 12.6307 0.0362388 12.3441C-0.101622 11.9456 0.169273 11.4995 0.587683 11.4424C0.65775 11.4342 0.728307 11.4307 0.798848 11.4322C1.34466 11.4304 1.89118 11.4301 2.4384 11.4313Z" fill="#8E8E8E"/>
<path d="M2.85527 10.3227C2.41846 10.3227 1.98044 10.326 1.54453 10.3227C1.2311 10.319 0.988566 10.1359 0.886302 9.84C0.762619 9.48253 0.975293 9.06744 1.34031 8.96518C1.43223 8.94013 1.52709 8.92745 1.62236 8.92747C2.44108 8.92475 3.2598 8.92747 4.07852 8.92566C4.33976 8.92566 4.5645 9.005 4.71865 9.22732C4.8728 9.44965 4.89211 9.68705 4.77898 9.92718C4.66163 10.1736 4.4568 10.3148 4.18289 10.3193C3.74095 10.3287 3.29871 10.3227 2.85527 10.3227Z" fill="#8E8E8E"/>
<path d="M3.24477 6.42877C3.52562 6.42877 3.80677 6.42545 4.08792 6.42877C4.40316 6.43359 4.65083 6.63662 4.7546 6.9235C4.87708 7.26107 4.6451 7.80075 4.10783 7.82157C3.85745 7.83122 3.60616 7.82368 3.35518 7.82368C3.02908 7.82368 2.70268 7.83001 2.37658 7.82126C2.10508 7.81402 1.89572 7.6834 1.77325 7.43965C1.65258 7.20134 1.66796 6.96181 1.81608 6.73918C1.95364 6.53194 2.15576 6.43148 2.40282 6.42847C2.68307 6.42605 2.96362 6.42877 3.24477 6.42877Z" fill="#8E8E8E"/>
<path d="M7.99569 11.0467C7.99207 10.7794 8.05602 10.6141 8.18785 10.4789C8.40203 10.2605 8.61591 10.0415 8.83703 9.83005C8.90004 9.76407 8.97543 9.71115 9.05889 9.6743C9.14235 9.63746 9.23225 9.61741 9.32346 9.61531C9.41467 9.61321 9.50539 9.62909 9.59046 9.66206C9.67553 9.69502 9.75327 9.74442 9.81925 9.80742C9.88523 9.87043 9.93816 9.94582 9.975 10.0293C10.0118 10.1127 10.0319 10.2026 10.034 10.2938C10.0361 10.385 10.0202 10.4758 9.98724 10.5608C9.95428 10.6459 9.90489 10.7237 9.84188 10.7896C9.61895 11.034 9.38395 11.269 9.13809 11.4898C8.91547 11.6895 8.64759 11.7139 8.37941 11.5851C8.12661 11.4639 8.00383 11.2503 7.99569 11.0467Z" fill="#8E8E8E"/>
<path d="M10.4056 11.0228C10.4056 10.8026 10.447 10.6509 10.5565 10.5341C10.7945 10.2831 11.0328 10.0306 11.2886 9.79836C11.5601 9.55281 11.9749 9.58177 12.2298 9.83939C12.4847 10.097 12.507 10.5115 12.26 10.7815C12.0371 11.0258 11.803 11.2617 11.5583 11.4838C11.3372 11.6841 11.0708 11.7151 10.8005 11.589C10.542 11.4678 10.4195 11.2482 10.4056 11.0228Z" fill="#8E8E8E"/>
</svg>
