<svg width="30" height="31" viewBox="0 0 30 31" fill="none" xmlns="http://www.w3.org/2000/svg">
<path d="M29.7514 15.7426C29.7514 14.6945 29.667 13.6465 29.4984 12.6199H15.1839V18.5444H23.3847C23.0474 20.448 21.9511 22.159 20.3489 23.2284V27.0783H25.2399C28.107 24.4048 29.7514 20.448 29.7514 15.7426Z" fill="#4285F4"/>
<path d="M15.1845 30.8C19.2744 30.8 22.7312 29.431 25.2399 27.0783L20.3489 23.2284C18.9786 24.1695 17.2295 24.7044 15.1845 24.7044C11.2212 24.7044 7.86921 21.9881 6.66755 18.3521H1.62903V22.3303C4.201 27.5276 9.45033 30.8 15.1845 30.8Z" fill="#34A853"/>
<path d="M6.66755 18.3521C6.035 16.4485 6.03559 14.3738 6.66814 12.4488V8.49203H1.62882C-0.542939 12.8338 -0.542939 17.967 1.62882 22.3088L6.66755 18.3521Z" fill="#FBBC04"/>
<path d="M15.1845 6.09656C17.356 6.05379 19.443 6.88793 21.0031 8.40649L25.3459 4.00052C22.5842 1.39116 18.9582 -0.0418455 15.1845 0.000930835C9.45033 0.000930835 4.20078 3.2947 1.62882 8.49203L6.66755 12.4702C7.86921 8.81286 11.2212 6.09656 15.1845 6.09656Z" fill="#EA4335"/>
</svg>
