<svg width="22" height="22" viewBox="0 0 22 22" fill="none" xmlns="http://www.w3.org/2000/svg">
<path fill-rule="evenodd" clip-rule="evenodd" d="M19.4633 6.63797L12.7967 1.45249C11.5933 0.515837 9.90778 0.515837 8.70333 1.45249L2.03667 6.63797C1.22444 7.26908 0.75 8.24017 0.75 9.26905V17.4167C0.75 19.2578 2.24222 20.75 4.08333 20.75H17.4167C19.2578 20.75 20.75 19.2578 20.75 17.4167V9.26905C20.75 8.24017 20.2756 7.26908 19.4633 6.63797Z" fill="#323232"/>
<path d="M6.30556 14.0834C6.30556 11.6289 8.2954 9.63904 10.75 9.63904C13.2046 9.63904 15.1944 11.6289 15.1944 14.0834V20.75H6.30556V14.0834Z" fill="white"/>
<path fill-rule="evenodd" clip-rule="evenodd" d="M19.4633 6.63797L12.7967 1.45249C11.5933 0.515837 9.90778 0.515837 8.70333 1.45249L2.03667 6.63797C1.22444 7.26908 0.75 8.24017 0.75 9.26905V17.4167C0.75 19.2578 2.24222 20.75 4.08333 20.75H17.4167C19.2578 20.75 20.75 19.2578 20.75 17.4167V9.26905C20.75 8.24017 20.2756 7.26908 19.4633 6.63797Z" stroke="#323232" stroke-width="1.5"/>
<path d="M6.30556 14.0834C6.30556 11.6289 8.2954 9.63904 10.75 9.63904C13.2046 9.63904 15.1944 11.6289 15.1944 14.0834V20.75H6.30556V14.0834Z" stroke="#323232" stroke-width="1.5"/>
</svg>
