<svg width="20" height="22" viewBox="0 0 20 22" fill="none" xmlns="http://www.w3.org/2000/svg">
<path fill-rule="evenodd" clip-rule="evenodd" d="M2.99714 11.8611V7.41667C2.99714 3.73444 6.02227 0.75 9.75391 0.75C13.4855 0.75 16.5107 3.73444 16.5107 7.41667V11.8611C16.5107 12.9567 17.0147 13.9933 17.8798 14.68L18.2274 14.9556C19.2591 15.7733 18.6729 17.4167 17.3499 17.4167H2.15789C0.834886 17.4167 0.24876 15.7733 1.28039 14.9556L1.62801 14.68C2.49426 13.9933 2.99714 12.9567 2.99714 11.8611Z" fill="#323232"/>
<path fill-rule="evenodd" clip-rule="evenodd" d="M8.0664 20.75H11.4414H8.0664Z" fill="#323232"/>
<path d="M8.0664 20.75H11.4414M2.99714 11.8611V7.41667C2.99714 3.73444 6.02227 0.75 9.75391 0.75C13.4855 0.75 16.5107 3.73444 16.5107 7.41667V11.8611C16.5107 12.9567 17.0147 13.9933 17.8798 14.68L18.2274 14.9556C19.2591 15.7733 18.6729 17.4167 17.3499 17.4167H2.15789C0.834886 17.4167 0.24876 15.7733 1.28039 14.9556L1.62801 14.68C2.49426 13.9933 2.99714 12.9567 2.99714 11.8611Z" stroke="#323232" stroke-width="1.5" stroke-linecap="round" stroke-linejoin="round"/>
</svg>
