<svg width="22" height="20" viewBox="0 0 22 20" fill="none" xmlns="http://www.w3.org/2000/svg">
<path d="M0.75 11.9489H16.3065M4.30591 7.41644L5.65043 2.39391C5.80298 1.8247 6.17577 1.33959 6.68653 1.04564C7.19728 0.751698 7.80402 0.673085 8.37282 0.827153L19.1068 3.7051C19.676 3.85765 20.1611 4.23044 20.4551 4.7412C20.749 5.25195 20.8276 5.85869 20.6736 6.42749L18.9512 12.8612C18.6448 14.0191 17.4729 14.7232 16.3066 14.4502M16.3065 16.3059V9.6388C16.3067 9.04934 16.0726 8.48399 15.6558 8.06718C15.239 7.65037 14.6736 7.41628 14.0841 7.41644H2.97236C2.3829 7.41628 1.81754 7.65037 1.40073 8.06718C0.983926 8.48399 0.749838 9.04934 0.75 9.6388V16.3059C0.749838 16.8953 0.983926 17.4607 1.40073 17.8775C1.81754 18.2943 2.3829 18.5284 2.97236 18.5282H14.0841C15.3115 18.5282 16.3065 17.5332 16.3065 16.3059Z" stroke="#323232" stroke-width="1.5" stroke-linecap="round" stroke-linejoin="round"/>
</svg>
