<svg width="24" height="24" viewBox="0 0 24 24" fill="none" xmlns="http://www.w3.org/2000/svg">
<path d="M3.36471 16.8269C3.10753 20.0874 5.44362 22.75 8.55127 22.75H13.6842C17.1777 22.75 19.5781 19.7828 18.9994 16.15C18.3886 12.3367 14.8952 9.21154 11.2196 9.21154C7.23319 9.21154 3.69691 12.6413 3.36471 16.8269Z" fill="#323232"/>
<path d="M9.85862 6.39103C11.3382 6.39103 12.5376 5.12824 12.5376 3.57051C12.5376 2.01279 11.3382 0.75 9.85862 0.75C8.37905 0.75 7.17962 2.01279 7.17962 3.57051C7.17962 5.12824 8.37905 6.39103 9.85862 6.39103Z" fill="#323232"/>
<path d="M17.1777 7.74487C18.3613 7.74487 19.3209 6.73464 19.3209 5.48846C19.3209 4.24228 18.3613 3.23205 17.1777 3.23205C15.994 3.23205 15.0345 4.24228 15.0345 5.48846C15.0345 6.73464 15.994 7.74487 17.1777 7.74487Z" fill="#323232"/>
<path d="M21.1426 12.2577C22.0303 12.2577 22.75 11.5 22.75 10.5654C22.75 9.63075 22.0303 8.87308 21.1426 8.87308C20.2549 8.87308 19.5352 9.63075 19.5352 10.5654C19.5352 11.5 20.2549 12.2577 21.1426 12.2577Z" fill="#323232"/>
<path d="M2.8932 10.0013C4.07686 10.0013 5.03641 8.99105 5.03641 7.74487C5.03641 6.49869 4.07686 5.48846 2.8932 5.48846C1.70955 5.48846 0.75 6.49869 0.75 7.74487C0.75 8.99105 1.70955 10.0013 2.8932 10.0013Z" fill="#323232"/>
<path d="M3.36471 16.8269C3.10753 20.0874 5.44362 22.75 8.55127 22.75H13.6842C17.1777 22.75 19.5781 19.7828 18.9994 16.15C18.3886 12.3367 14.8952 9.21154 11.2196 9.21154C7.23319 9.21154 3.69691 12.6413 3.36471 16.8269Z" stroke="#323232" stroke-width="1.5" stroke-linecap="round" stroke-linejoin="round"/>
<path d="M9.85862 6.39103C11.3382 6.39103 12.5376 5.12824 12.5376 3.57051C12.5376 2.01279 11.3382 0.75 9.85862 0.75C8.37905 0.75 7.17962 2.01279 7.17962 3.57051C7.17962 5.12824 8.37905 6.39103 9.85862 6.39103Z" stroke="#323232" stroke-width="1.5" stroke-linecap="round" stroke-linejoin="round"/>
<path d="M17.1777 7.74487C18.3613 7.74487 19.3209 6.73464 19.3209 5.48846C19.3209 4.24228 18.3613 3.23205 17.1777 3.23205C15.994 3.23205 15.0345 4.24228 15.0345 5.48846C15.0345 6.73464 15.994 7.74487 17.1777 7.74487Z" stroke="#323232" stroke-width="1.5" stroke-linecap="round" stroke-linejoin="round"/>
<path d="M21.1426 12.2577C22.0303 12.2577 22.75 11.5 22.75 10.5654C22.75 9.63075 22.0303 8.87308 21.1426 8.87308C20.2549 8.87308 19.5352 9.63075 19.5352 10.5654C19.5352 11.5 20.2549 12.2577 21.1426 12.2577Z" stroke="#323232" stroke-width="1.5" stroke-linecap="round" stroke-linejoin="round"/>
<path d="M2.8932 10.0013C4.07686 10.0013 5.03641 8.99105 5.03641 7.74487C5.03641 6.49869 4.07686 5.48846 2.8932 5.48846C1.70955 5.48846 0.75 6.49869 0.75 7.74487C0.75 8.99105 1.70955 10.0013 2.8932 10.0013Z" stroke="#323232" stroke-width="1.5" stroke-linecap="round" stroke-linejoin="round"/>
</svg>
