<svg width="22" height="21" viewBox="0 0 22 21" fill="none" xmlns="http://www.w3.org/2000/svg">
<path d="M1.86111 4.10294V1.86765C1.86111 1.25039 2.35857 0.75 2.97222 0.75H18.5278C19.1414 0.75 19.6389 1.25039 19.6389 1.86765V4.10294M1.86111 4.10294H19.6389M1.86111 4.10294C1.24746 4.10294 0.75 4.60333 0.75 5.22059V17.5147C0.75 18.7492 1.74492 19.75 2.97222 19.75H18.5278C19.7551 19.75 20.75 18.7492 20.75 17.5147V5.22059C20.75 4.60333 20.2525 4.10294 19.6389 4.10294M15.1944 8.57353C15.1944 11.0426 13.2046 13.0441 10.75 13.0441C8.2954 13.0441 6.30556 11.0426 6.30556 8.57353" stroke="#323232" stroke-width="1.5" stroke-linecap="round" stroke-linejoin="round"/>
</svg>
