<svg width="20" height="22" viewBox="0 0 20 22" fill="none" xmlns="http://www.w3.org/2000/svg">
<path fill-rule="evenodd" clip-rule="evenodd" d="M18.75 20.75V18.8056C18.75 16.1975 16.6094 14.0833 13.9688 14.0833H5.53125C2.89064 14.0833 0.75 16.1975 0.75 18.8056V20.75" fill="#323232"/>
<path d="M14.25 5.19444C14.25 7.64904 12.2353 9.63889 9.75 9.63889C7.26472 9.63889 5.25 7.64904 5.25 5.19444C5.25 2.73985 7.26472 0.75 9.75 0.75C12.2353 0.75 14.25 2.73985 14.25 5.19444Z" fill="#323232"/>
<path d="M18.75 20.75V18.8056C18.75 16.1975 16.6094 14.0833 13.9688 14.0833H5.53125C2.89064 14.0833 0.75 16.1975 0.75 18.8056V20.75H18.75ZM14.25 5.19444C14.25 7.64904 12.2353 9.63889 9.75 9.63889C7.26472 9.63889 5.25 7.64904 5.25 5.19444C5.25 2.73985 7.26472 0.75 9.75 0.75C12.2353 0.75 14.25 2.73985 14.25 5.19444Z" stroke="#323232" stroke-width="1.5" stroke-linecap="round" stroke-linejoin="round"/>
</svg>
